<?xml version="1.0" encoding="utf-8"?>
<!-- Generator: Adobe Illustrator 19.0.0, SVG Export Plug-In . SVG Version: 6.00 Build 0)  -->
<svg version="1.1" id="Layer_1" xmlns="http://www.w3.org/2000/svg" xmlns:xlink="http://www.w3.org/1999/xlink" x="0px" y="0px"
	 viewBox="0 0 570 120" style="enable-background:new 0 0 570 120;" xml:space="preserve">
<style type="text/css">
	.st0{fill:url(#XMLID_234_);}
	.st1{fill:url(#XMLID_235_);}
	.st2{fill:url(#XMLID_236_);}
	.st3{fill:url(#XMLID_237_);}
	.st4{fill:#007DBE;}
</style>
<g id="XMLID_7_">
	
		<linearGradient id="XMLID_234_" gradientUnits="userSpaceOnUse" x1="79.4184" y1="-16300.7686" x2="56.8971" y2="-16394.4102" gradientTransform="matrix(1 0 0 -1 0 -16264)">
		<stop  offset="0" style="stop-color:#29ABE2"/>
		<stop  offset="1" style="stop-color:#0071BC"/>
	</linearGradient>
	<path id="XMLID_82_" class="st0" d="M98.2,65.2c-18.3,9.6-35.6,18.6-60.7,18.6c-4.5,0-8.5-0.6-12.1-1.7c6,19.7,15.2,36.4,23,37.8
		c11,2,9.9-32.6,20.1-33.9C82.1,84.1,79,114,88,116.4c12,3.2,26.4-37.6,28.9-60.1c-1.5,0.4-3,1-4.5,1.7
		C107.5,60.4,102.8,62.8,98.2,65.2z"/>
	
		<linearGradient id="XMLID_235_" gradientUnits="userSpaceOnUse" x1="0.9489" y1="-16318.6426" x2="141.776" y2="-16318.6426" gradientTransform="matrix(1 0 0 -1 0 -16264)">
		<stop  offset="0" style="stop-color:#29ABE2"/>
		<stop  offset="1" style="stop-color:#0071BC"/>
	</linearGradient>
	<path id="XMLID_81_" class="st1" d="M38.2,70.9c0.4,0,0.8,0,1.3,0c16.3,0,31.6-7.1,46.4-13.9c6.7-3.1,13-6.9,19.4-9.2
		c4.2-1.5,8.5-2.3,12.7-2.3c10.9,0,19.1,4.7,23.8,8.4l-1.4-1.9c-0.4-0.6-10.5-13.5-27.1-13.5c-4,0-8.1,0.8-12.1,2.3
		C95,43,88.9,45.9,82.5,49c-14.1,6.8-28.7,13.9-44.3,13.9c-0.4,0-0.8,0-1.2,0c-20.8-0.5-33.6-13.9-33.7-14l-2.3-2.5v0
		C3.9,52,14.4,71.4,38.2,70.9z"/>
	<linearGradient id="XMLID_236_" gradientUnits="userSpaceOnUse" x1="139.9222" y1="62.0111" x2="-7.9017" y2="62.0111">
		<stop  offset="0" style="stop-color:#9CD933"/>
		<stop  offset="1" style="stop-color:#97D431"/>
	</linearGradient>
	<path id="XMLID_69_" class="st2" d="M37.6,78.6c23.8,0,40.5-8.8,58.2-18c4.6-2.4,9.3-4.9,14.3-7.3c4.4-2.1,9.1-3.2,14.2-3.2
		c8.5,0,14.9,3.1,15,3.2l3.4,1.7l-0.8-1.1c-4.7-3.7-12.9-8.4-23.8-8.4c-4.2,0-8.5,0.8-12.7,2.3c-6.4,2.3-12.7,6.1-19.4,9.2
		c-14.8,6.8-30.1,13.9-46.4,13.9c-0.4,0-0.8,0-1.2,0C14.4,71.4,3.6,52,1,46.5l0.8,3.3C1.9,50,9.3,78.6,37.6,78.6z"/>
	
		<linearGradient id="XMLID_237_" gradientUnits="userSpaceOnUse" x1="36.072" y1="-16350.3838" x2="91.6934" y2="-16252.2285" gradientTransform="matrix(1 0 0 -1 0 -16264)">
		<stop  offset="0" style="stop-color:#9CD933"/>
		<stop  offset="1" style="stop-color:#65AB1C"/>
	</linearGradient>
	<path id="XMLID_65_" class="st3" d="M108.3,6C101.2-2.7,90-2,71.1,8.5c-11.2,6.6-20.9,19-20.9,19c3.5-7.4,8.6-14,12.2-18.2
		c-13.9-3.2-26.6-3.8-33.5,2c-9.2,7.7-10.7,26.3-9.2,42.3c4.7,2.1,10.6,3.9,17.5,4.1c0.4,0,0.7,0,1.1,0c14.4,0,28.4-6.8,42-13.4
		c6.5-3.2,12.7-6.1,19-8.5c4.6-1.7,9.4-2.6,14-2.6c1.4,0,2.7,0.1,4,0.2C116.1,22.9,113.1,12.1,108.3,6z"/>
	<g id="XMLID_96_">
		<path id="XMLID_97_" class="st4" d="M181.5,60.5c2.2,2.3,5.1,3.4,8.5,3.4c3.9,0,6.8-1.1,8.6-3.2c1.9-2.1,2.8-5.4,2.8-9.7h11.6
			c0,4.8-1,9-2.9,12.5c-1.9,3.5-4.6,6.1-8,7.9c-3.4,1.8-7.2,2.7-11.5,2.7h-1.2c-4.7,0-8.9-1-12.7-2.9c-3.7-1.9-6.7-4.8-8.8-8.5
			c-2.1-3.8-3.2-8.3-3.2-13.6V41c0-5.1,1.1-9.6,3.2-13.4s5.1-6.7,8.8-8.6c3.7-2,7.8-3,12.4-3h1.2c4.4,0,8.3,0.9,11.7,2.6
			c3.4,1.7,6.1,4.3,8.1,7.8c2,3.5,3,7.7,3,12.8H201c0-4.3-0.9-7.5-2.8-9.7c-1.9-2.2-4.6-3.3-8.2-3.3c-3.5,0-6.3,1.1-8.5,3.4
			c-2.2,2.3-3.3,5.5-3.3,9.7v11.7C178.2,55,179.3,58.2,181.5,60.5z"/>
		<path id="XMLID_99_" class="st4" d="M254.7,65.7c-1.6,2.6-3.7,4.7-6.4,6c-2.7,1.4-5.6,2.1-8.9,2.1c-3.3,0-6.2-0.7-8.9-2.1
			c-2.7-1.4-4.8-3.4-6.4-6c-1.6-2.6-2.4-5.8-2.4-9.4v-5.6c0-3.6,0.8-6.7,2.4-9.4c1.6-2.6,3.7-4.7,6.4-6c2.7-1.4,5.6-2.1,8.9-2.1
			c3.3,0,6.2,0.7,8.9,2.1c2.7,1.4,4.8,3.4,6.4,6c1.6,2.6,2.4,5.8,2.4,9.4v5.6C257.1,59.9,256.3,63,254.7,65.7z M245.4,42.6
			c-1.5-1.6-3.5-2.4-6-2.4c-2.5,0-4.4,0.8-6,2.4c-1.5,1.6-2.3,3.8-2.3,6.8v8.2c0,2.9,0.8,5.2,2.3,6.8c1.5,1.6,3.5,2.4,6,2.4
			c2.5,0,4.4-0.8,6-2.4c1.5-1.6,2.3-3.8,2.3-6.8v-8.2C247.7,46.5,247,44.2,245.4,42.6z"/>
		<path id="XMLID_102_" class="st4" d="M286.3,44.9c0-1.5-0.6-2.6-1.7-3.4c-1.2-0.8-2.7-1.2-4.8-1.2c-2.1,0-3.7,0.3-4.9,1
			c-1.2,0.7-1.8,1.6-1.8,2.7c0,1,0.4,1.8,1.1,2.4c0.7,0.6,1.7,1.1,2.8,1.5c1.1,0.4,2.7,0.8,4.6,1.3c2.9,0.7,5.2,1.4,7.1,2.1
			c1.9,0.7,3.5,1.9,4.8,3.4c1.3,1.5,2,3.6,2,6.2c0,4.5-1.4,7.8-4.3,9.9c-2.9,2.1-6.9,3.1-11.9,3.1c-4.6,0-8.4-1-11.4-3
			c-3-2-4.5-5.1-4.5-9.2l0.1-1.3h8.4l-0.1,0.9c0,1.7,0.6,3,1.9,4c1.3,1,3,1.5,5.3,1.5c2.7,0,4.6-0.4,5.8-1.3
			c1.2-0.8,1.8-1.9,1.8-3.2c0-1-0.4-1.8-1.1-2.4c-0.7-0.6-1.6-1.1-2.7-1.5c-1.1-0.4-2.6-0.8-4.6-1.2c-2.9-0.7-5.3-1.5-7.1-2.2
			c-1.8-0.7-3.4-1.9-4.8-3.5c-1.3-1.6-2-3.8-2-6.5c0-2.5,0.7-4.7,2.1-6.4c1.4-1.8,3.2-3.1,5.6-3.9c2.3-0.9,4.9-1.3,7.8-1.3
			c4.4,0,8,1,10.8,2.9c2.8,1.9,4.2,4.8,4.2,8.7v0.7h-8.3V44.9z"/>
		<path id="XMLID_104_" class="st4" d="M303.4,73.2V33.7h8.9v32.1h16.2l1,7.4H303.4z"/>
		<path id="XMLID_106_" class="st4" d="M335.5,73.2V33.7h27.8l-1,7.1h-18.1v8.6h16.9v7.1h-16.9v9.6h18.2l1,7.1H335.5z"/>
		<path id="XMLID_108_" class="st4" d="M387.6,40.9v32.3h-8.8V40.9h-11.2v-7.1h31.2v7.1H387.6z"/>
	</g>
	<g id="XMLID_86_">
		<g id="XMLID_265_">
			<path id="XMLID_272_" d="M442,19.8c3.8,2,6.8,4.8,9.1,8.6c2.2,3.8,3.4,8.2,3.4,13.4v6.4c0,5.2-1.1,9.6-3.4,13.4
				c-2.2,3.8-5.3,6.7-9.1,8.6c-3.8,2-8,3-12.7,3h-21.4V16.8h21.4C433.9,16.8,438.2,17.8,442,19.8z M420.6,63.1h8.6
				c3.5,0,6.4-1.1,8.5-3.4c2.2-2.3,3.3-5.5,3.3-9.7V40c0-4.2-1.1-7.4-3.3-9.7c-2.2-2.3-5-3.4-8.5-3.4h-8.6V63.1z"/>
			<path id="XMLID_270_" d="M464.5,73.2V33.7h27.8l-1,7.1h-18.1v8.6h16.9v7.1h-16.9v9.6h18.2l1,7.1H464.5z"/>
			<path id="XMLID_268_" d="M511.9,55c-0.4-0.6-1-1.5-1.7-2.7s-1.2-2-1.4-2.4l-0.2,0.2v23.1h-8.1V33.7h7.5L520.3,52l1.7,2.7
				c0.6,1.1,1.1,1.9,1.4,2.4l0.2-0.2V33.7h8.1v39.5h-7.5L511.9,55z"/>
			<path id="XMLID_266_" d="M557.9,40.9v32.3h-8.8V40.9h-11.2v-7.1H569v7.1H557.9z"/>
		</g>
	</g>
	<g id="XMLID_1_">
		<g id="XMLID_678_">
			<path id="XMLID_745_" d="M163.9,89.3h10.5v3.1h-3.6V111h-3.4V92.4h-3.6V89.3z"/>
			<path id="XMLID_742_" d="M184.6,111c-0.2-0.6-0.3-0.9-0.3-2.7v-3.4c0-2-0.7-2.8-2.2-2.8h-1.2v8.8h-3.4V89.3h5.1
				c3.5,0,5.1,1.6,5.1,5V96c0,2.2-0.7,3.7-2.2,4.4c1.7,0.7,2.3,2.4,2.3,4.6v3.3c0,1.1,0,1.8,0.4,2.6H184.6z M180.9,92.4v6.7h1.3
				c1.3,0,2-0.6,2-2.3v-2.1c0-1.5-0.5-2.2-1.7-2.2H180.9z"/>
			<path id="XMLID_739_" d="M202.6,111h-3.4l-0.6-3.9h-4.2l-0.6,3.9h-3.1l3.5-21.7h5L202.6,111z M194.8,104.1h3.3l-1.6-11
				L194.8,104.1z"/>
			<path id="XMLID_737_" d="M204.7,89.3h10.5v3.1h-3.6V111h-3.4V92.4h-3.6V89.3z"/>
			<path id="XMLID_734_" d="M228.1,111h-3.4l-0.6-3.9h-4.2l-0.6,3.9h-3.1l3.5-21.7h5L228.1,111z M220.3,104.1h3.3l-1.6-11
				L220.3,104.1z"/>
			<path id="XMLID_732_" d="M238.5,104.7l2.3-15.4h4.7V111h-3.2V95.4L240,111h-3.2l-2.5-15.3V111h-3V89.3h4.7L238.5,104.7z"/>
			<path id="XMLID_730_" d="M253,98.4h4.7v3.1H253v6.4h5.9v3.1h-9.3V89.3h9.3v3.1H253V98.4z"/>
			<path id="XMLID_728_" d="M265.6,95.3V111h-3.1V89.3h4.3l3.5,13v-13h3V111h-3.5L265.6,95.3z"/>
			<path id="XMLID_726_" d="M276.3,89.3h10.5v3.1h-3.6V111h-3.4V92.4h-3.6V89.3z"/>
			<path id="XMLID_723_" d="M319.1,94.7v2.8c0,3.5-1.7,5.4-5.1,5.4h-1.6v8.2H309V89.3h5C317.4,89.3,319.1,91.2,319.1,94.7z
				 M312.4,92.4v7.3h1.6c1.1,0,1.7-0.5,1.7-2v-3.3c0-1.5-0.6-2-1.7-2H312.4z"/>
			<path id="XMLID_720_" d="M329.5,111c-0.2-0.6-0.3-0.9-0.3-2.7v-3.4c0-2-0.7-2.8-2.2-2.8h-1.2v8.8h-3.4V89.3h5.1
				c3.5,0,5.1,1.6,5.1,5V96c0,2.2-0.7,3.7-2.2,4.4c1.7,0.7,2.3,2.4,2.3,4.6v3.3c0,1.1,0,1.8,0.4,2.6H329.5z M325.8,92.4v6.7h1.3
				c1.3,0,2-0.6,2-2.3v-2.1c0-1.5-0.5-2.2-1.7-2.2H325.8z"/>
			<path id="XMLID_717_" d="M336.1,94.5c0-3.5,1.8-5.5,5.2-5.5c3.3,0,5.2,2,5.2,5.5v11.3c0,3.5-1.8,5.5-5.2,5.5
				c-3.3,0-5.2-2-5.2-5.5V94.5z M339.5,106c0,1.6,0.7,2.1,1.8,2.1c1.1,0,1.8-0.6,1.8-2.1V94.3c0-1.6-0.7-2.1-1.8-2.1
				c-1.1,0-1.8,0.6-1.8,2.1V106z"/>
			<path id="XMLID_715_" d="M349.2,89.3h10.5v3.1h-3.6V111h-3.4V92.4h-3.6V89.3z"/>
			<path id="XMLID_713_" d="M366.2,98.4h4.7v3.1h-4.7v6.4h5.9v3.1h-9.3V89.3h9.3v3.1h-5.9V98.4z"/>
			<path id="XMLID_711_" d="M385.2,89.3v3l-6.5,15.6h6.5v3.1h-10v-3l6.5-15.6h-6.2v-3.1H385.2z"/>
			<path id="XMLID_708_" d="M399.8,111h-3.4l-0.6-3.9h-4.2L391,111h-3.1l3.5-21.7h5L399.8,111z M392,104.1h3.3l-1.6-11L392,104.1z"
				/>
			<path id="XMLID_705_" d="M410.1,111c-0.2-0.6-0.3-0.9-0.3-2.7v-3.4c0-2-0.7-2.8-2.2-2.8h-1.2v8.8h-3.4V89.3h5.1
				c3.5,0,5.1,1.6,5.1,5V96c0,2.2-0.7,3.7-2.2,4.4c1.7,0.7,2.3,2.4,2.3,4.6v3.3c0,1.1,0,1.8,0.4,2.6H410.1z M406.3,92.4v6.7h1.3
				c1.3,0,2-0.6,2-2.3v-2.1c0-1.5-0.5-2.2-1.7-2.2H406.3z"/>
			<path id="XMLID_703_" d="M420.4,98.4h4.7v3.1h-4.7v6.4h5.9v3.1h-9.3V89.3h9.3v3.1h-5.9V98.4z"/>
			<path id="XMLID_700_" d="M459.1,94.7v2.8c0,3.5-1.7,5.4-5.1,5.4h-1.6v8.2H449V89.3h5C457.4,89.3,459.1,91.2,459.1,94.7z
				 M452.4,92.4v7.3h1.6c1.1,0,1.7-0.5,1.7-2v-3.3c0-1.5-0.6-2-1.7-2H452.4z"/>
			<path id="XMLID_697_" d="M469.5,111c-0.2-0.6-0.3-0.9-0.3-2.7v-3.4c0-2-0.7-2.8-2.2-2.8h-1.2v8.8h-3.4V89.3h5.1
				c3.5,0,5.1,1.6,5.1,5V96c0,2.2-0.7,3.7-2.2,4.4c1.7,0.7,2.3,2.4,2.3,4.6v3.3c0,1.1,0,1.8,0.4,2.6H469.5z M465.8,92.4v6.7h1.3
				c1.3,0,2-0.6,2-2.3v-2.1c0-1.5-0.5-2.2-1.7-2.2H465.8z"/>
			<path id="XMLID_694_" d="M476.1,94.5c0-3.5,1.8-5.5,5.2-5.5c3.3,0,5.2,2,5.2,5.5v11.3c0,3.5-1.8,5.5-5.2,5.5
				c-3.3,0-5.2-2-5.2-5.5V94.5z M479.5,106c0,1.6,0.7,2.1,1.8,2.1c1.1,0,1.8-0.6,1.8-2.1V94.3c0-1.6-0.7-2.1-1.8-2.1
				c-1.1,0-1.8,0.6-1.8,2.1V106z"/>
			<path id="XMLID_692_" d="M493.6,98.9h4.4v3.1h-4.4v9h-3.4V89.3h9v3.1h-5.6V98.9z"/>
			<path id="XMLID_690_" d="M502.4,89.3h3.4V111h-3.4V89.3z"/>
			<path id="XMLID_688_" d="M509.9,89.3h3.4v18.6h5.6v3.1h-9V89.3z"/>
			<path id="XMLID_685_" d="M532.9,111h-3.4l-0.6-3.9h-4.2l-0.6,3.9H521l3.5-21.7h5L532.9,111z M525.2,104.1h3.3l-1.6-11
				L525.2,104.1z"/>
			<path id="XMLID_683_" d="M547.5,89.3l-3.6,10.5l3.8,11.2h-3.6l-2.8-8.6l-2.8,8.6h-3.2l3.8-11.2l-3.6-10.5h3.5l2.6,8l2.6-8H547.5z
				"/>
			<path id="XMLID_681_" d="M551,89.3h3.4V111H551V89.3z"/>
			<path id="XMLID_679_" d="M561.8,98.4h4.7v3.1h-4.7v6.4h5.9v3.1h-9.3V89.3h9.3v3.1h-5.9V98.4z"/>
		</g>
	</g>
	<circle id="XMLID_13_" cx="438.1" cy="100" r="3.5"/>
	<circle id="XMLID_8_" cx="298.1" cy="100" r="3.5"/>
</g>
</svg>
